<svg width="24" height="24" viewBox="0 0 24 24" fill="none" xmlns="http://www.w3.org/2000/svg">
<path d="M22.0002 13.6634H13.6668V21.9967C13.6668 22.4388 13.4912 22.8627 13.1787 23.1753C12.8661 23.4878 12.4422 23.6634 12.0002 23.6634C11.5581 23.6634 11.1342 23.4878 10.8217 23.1753C10.5091 22.8627 10.3335 22.4388 10.3335 21.9967V13.6634H2.00016C1.55814 13.6634 1.13421 13.4878 0.821652 13.1753C0.509091 12.8627 0.333496 12.4388 0.333496 11.9967C0.333496 11.5547 0.509091 11.1308 0.821652 10.8182C1.13421 10.5057 1.55814 10.3301 2.00016 10.3301H10.3335V1.99674C10.3335 1.55472 10.5091 1.13079 10.8217 0.818233C11.1342 0.505672 11.5581 0.330078 12.0002 0.330078C12.4422 0.330078 12.8661 0.505672 13.1787 0.818233C13.4912 1.13079 13.6668 1.55472 13.6668 1.99674V10.3301H22.0002C22.4422 10.3301 22.8661 10.5057 23.1787 10.8182C23.4912 11.1308 23.6668 11.5547 23.6668 11.9967C23.6668 12.4388 23.4912 12.8627 23.1787 13.1753C22.8661 13.4878 22.4422 13.6634 22.0002 13.6634Z" fill="white"/>
</svg>
