<svg width="40" height="40" viewBox="0 0 40 40" fill="none" xmlns="http://www.w3.org/2000/svg">
<path d="M19.1668 13.3333C23.3335 13.3333 26.6668 16.6667 26.6668 20.8333C26.6668 25 23.3335 28.3333 19.1668 28.3333C15.0002 28.3333 11.6668 25 11.6668 20.8333C11.6668 16.6667 15.0002 13.3333 19.1668 13.3333ZM19.1668 15C17.6197 15 16.136 15.6146 15.042 16.7085C13.9481 17.8025 13.3335 19.2862 13.3335 20.8333C13.3335 22.3804 13.9481 23.8642 15.042 24.9581C16.136 26.0521 17.6197 26.6667 19.1668 26.6667C20.7139 26.6667 22.1977 26.0521 23.2916 24.9581C24.3856 23.8642 25.0002 22.3804 25.0002 20.8333C25.0002 19.2862 24.3856 17.8025 23.2916 16.7085C22.1977 15.6146 20.7139 15 19.1668 15ZM8.3335 8.33333H11.6668L15.0002 5H23.3335L26.6668 8.33333H30.0002C31.3262 8.33333 32.598 8.86012 33.5357 9.7978C34.4734 10.7355 35.0002 12.0073 35.0002 13.3333V28.3333C35.0002 29.6594 34.4734 30.9312 33.5357 31.8689C32.598 32.8065 31.3262 33.3333 30.0002 33.3333H8.3335C7.00741 33.3333 5.73564 32.8065 4.79796 31.8689C3.86028 30.9312 3.3335 29.6594 3.3335 28.3333V13.3333C3.3335 12.0073 3.86028 10.7355 4.79796 9.7978C5.73564 8.86012 7.00741 8.33333 8.3335 8.33333ZM15.6835 6.66667L12.3502 10H8.3335C7.44944 10 6.60159 10.3512 5.97647 10.9763C5.35135 11.6014 5.00016 12.4493 5.00016 13.3333V28.3333C5.00016 29.2174 5.35135 30.0652 5.97647 30.6904C6.60159 31.3155 7.44944 31.6667 8.3335 31.6667H30.0002C30.8842 31.6667 31.7321 31.3155 32.3572 30.6904C32.9823 30.0652 33.3335 29.2174 33.3335 28.3333V13.3333C33.3335 12.4493 32.9823 11.6014 32.3572 10.9763C31.7321 10.3512 30.8842 10 30.0002 10H25.9835L22.6502 6.66667H15.6835Z" fill="white"/>
</svg>
