<svg width="32" height="33" viewBox="0 0 32 33" fill="none" xmlns="http://www.w3.org/2000/svg">
<path d="M9.03696 2.75938L8.85796 3.19026C8.8435 3.22449 8.84573 3.26345 8.8624 3.2965L9.07366 3.71085C9.1248 3.81237 9.02696 3.92452 8.928 3.87848L8.52218 3.68842C8.48993 3.67308 8.45324 3.67544 8.42211 3.69314L8.03185 3.91744C7.93623 3.97174 7.8306 3.86785 7.87397 3.76279L8.05297 3.33192C8.06743 3.29768 8.0652 3.25873 8.04853 3.22567L7.83727 2.81133C7.78613 2.7098 7.88397 2.59766 7.98293 2.6437L8.38875 2.83375C8.421 2.8491 8.45769 2.84674 8.48882 2.82903L8.87908 2.60474C8.9747 2.55044 9.08033 2.65432 9.03696 2.75938Z" fill="#F8931F"/>
<path d="M25.3317 2.87043L25.3184 3.25763C25.3184 3.28832 25.3295 3.31783 25.3517 3.3379L25.6319 3.5858C25.6997 3.64601 25.6575 3.76405 25.5685 3.76051L25.2038 3.74635C25.1749 3.74635 25.1471 3.75815 25.1282 3.78176L24.8947 4.07924C24.838 4.15125 24.7268 4.10639 24.7302 4.01195L24.7435 3.62476C24.7435 3.59406 24.7324 3.56455 24.7102 3.54448L24.43 3.29658C24.3622 3.23638 24.4044 3.11833 24.4934 3.12187L24.858 3.13604C24.887 3.13604 24.9147 3.12423 24.9337 3.10062L25.1671 2.80314C25.2238 2.73113 25.335 2.77599 25.3317 2.87043Z" fill="#F8931F"/>
<path d="M21.1896 29.3739L21.4153 29.6784C21.4331 29.702 21.4609 29.7162 21.4898 29.7162L21.8545 29.7127C21.9434 29.7127 21.9834 29.8307 21.9134 29.8897L21.6265 30.1294C21.6043 30.1483 21.5909 30.1778 21.5909 30.2085L21.5943 30.5957C21.5943 30.6901 21.4831 30.7326 21.4275 30.6582L21.2018 30.3537C21.184 30.3301 21.1562 30.3159 21.1273 30.3159L20.7626 30.3194C20.6737 30.3194 20.6336 30.2014 20.7037 30.1424L20.9905 29.9027C21.0128 29.8838 21.0261 29.8543 21.0261 29.8236L21.0228 29.4364C21.0228 29.342 21.134 29.2995 21.1896 29.3739Z" fill="#F8931F"/>
<path d="M29.7497 14.3766L29.9143 14.7225C29.9276 14.7497 29.951 14.7697 29.9799 14.7756L30.3379 14.85C30.4258 14.8677 30.4413 14.994 30.3624 15.0365L30.0366 15.2112C30.011 15.2254 29.9921 15.2502 29.9866 15.2809L29.9165 15.661C29.8998 15.7543 29.782 15.7708 29.742 15.687L29.5774 15.3411C29.5641 15.3139 29.5407 15.2939 29.5118 15.288L29.1538 15.2136C29.066 15.1959 29.0504 15.0696 29.1293 15.0271L29.4551 14.8524C29.4807 14.8382 29.4996 14.8134 29.5051 14.7827L29.5752 14.4026C29.5919 14.3093 29.7097 14.2928 29.7509 14.3766H29.7497Z" fill="#F8931F"/>
<path d="M2.02042 18.2213L1.77692 18.5094C1.75802 18.5318 1.74913 18.5637 1.75468 18.5932L1.82028 18.9745C1.83585 19.0677 1.73245 19.1291 1.66574 19.0666L1.39444 18.808C1.37332 18.788 1.3433 18.7785 1.3155 18.7844L0.956374 18.8541C0.868537 18.8706 0.810721 18.7608 0.869649 18.69L1.11315 18.4019C1.13205 18.3795 1.14094 18.3476 1.13538 18.3181L1.06978 17.9368C1.05422 17.8436 1.15762 17.7822 1.22433 17.8448L1.49562 18.1033C1.51675 18.1234 1.54677 18.1328 1.57456 18.1269L1.93369 18.0572C2.02153 18.0407 2.07935 18.1505 2.02042 18.2213Z" fill="#F8931F"/>
<path d="M26.3181 4.59225L26.2992 5.14471C26.2981 5.18839 26.3159 5.23089 26.3471 5.25804L26.7462 5.61218C26.8441 5.69836 26.7829 5.86717 26.6561 5.86244L26.1358 5.84238C26.0947 5.8412 26.0546 5.86008 26.0291 5.89314L25.6955 6.31693C25.6143 6.42081 25.4553 6.35588 25.4598 6.22131L25.4787 5.66885C25.4798 5.62517 25.462 5.58267 25.4309 5.55552L25.0317 5.20138C24.9339 5.1152 24.995 4.94639 25.1218 4.95111L25.6421 4.97118C25.6833 4.97236 25.7233 4.95347 25.7489 4.92042L26.0824 4.49663C26.1636 4.39275 26.3226 4.45767 26.3181 4.59225Z" fill="#F8931F"/>
<path d="M20.1775 30.609L20.4999 31.0423C20.5255 31.0765 20.5644 31.0966 20.6055 31.0966L21.1259 31.0918C21.2526 31.0907 21.3093 31.2607 21.2093 31.3445L20.8012 31.6868C20.769 31.714 20.7501 31.7553 20.7501 31.799L20.7545 32.3514C20.7556 32.486 20.5955 32.5462 20.5166 32.44L20.1941 32.0067C20.1686 31.9725 20.1297 31.9524 20.0885 31.9524L19.5682 31.9571C19.4414 31.9583 19.3847 31.7883 19.4848 31.7045L19.8928 31.3622C19.9251 31.335 19.944 31.2937 19.944 31.25L19.9395 30.6976C19.9384 30.563 20.0985 30.5028 20.1775 30.609Z" fill="#F8931F"/>
<path d="M1.67537 19.9175L1.32736 20.3283C1.29957 20.3613 1.28845 20.405 1.29512 20.4475L1.38851 20.9905C1.41075 21.1227 1.26287 21.2113 1.16837 21.1216L0.781442 20.7521C0.75031 20.7226 0.709172 20.7107 0.669145 20.7178L0.157692 20.817C0.0331646 20.8406 -0.0502244 20.6836 0.0342765 20.5833L0.382287 20.1724C0.410083 20.1394 0.421202 20.0957 0.41453 20.0532L0.321135 19.5102C0.298898 19.378 0.446774 19.2894 0.541282 19.3792L0.928207 19.7487C0.959339 19.7782 1.00048 19.79 1.0405 19.7829L1.55196 19.6837C1.67648 19.6601 1.75987 19.8171 1.67537 19.9175Z" fill="#F8931F"/>
<path d="M14.1537 16.6155C14.0948 15.971 14.5384 15.3972 15.1455 15.3347C15.7525 15.2721 16.2929 15.7431 16.3518 16.3877C16.4108 17.0322 15.9671 17.6059 15.3601 17.6685C14.753 17.7311 14.2126 17.26 14.1537 16.6155Z" fill="#4A2559"/>
<path d="M21.53 8.36517C23.1157 7.88307 24.033 6.12751 23.5789 4.44401C23.1248 2.76051 21.4713 1.78658 19.8857 2.26868C18.3001 2.75078 17.3827 4.50635 17.8368 6.18985C18.2909 7.87334 19.9444 8.84727 21.53 8.36517Z" fill="#249EFF"/>
<path d="M28.0194 8.93108C27.8114 8.91338 27.5213 8.92046 27.5213 8.92046C27.5213 8.92046 28.0783 8.7127 28.3084 8.57812C28.5375 8.44355 28.3896 8.23224 28.1861 8.26884C27.9849 8.30425 27.4379 8.45181 27.4379 8.45181C27.4379 8.45181 28.125 7.99496 28.3051 7.82025C28.4852 7.64554 28.344 7.34452 28.0549 7.50034C27.7703 7.65381 27.111 8.00795 27.111 8.00795C27.111 8.00795 27.6091 7.5995 27.8459 7.32327C28.0827 7.04704 27.8059 6.84046 27.598 6.98447C27.3901 7.12731 26.6785 7.74942 26.6785 7.74942C26.9675 7.32799 26.7941 7.05058 26.6362 7.11079C26.4783 7.17099 26.2326 7.92532 25.8679 8.10357C24.8061 8.32314 23.7443 8.54271 22.6825 8.76228C22.0843 8.88623 21.5028 9.12468 20.8935 9.1778C20.0162 9.25336 19.0778 9.03851 18.4152 8.39515C17.8281 7.82497 17.5168 7.02461 17.2666 6.24077C16.982 5.34833 16.6629 4.46651 16.3571 3.57997C16.2348 3.22701 16.1136 2.87522 15.9913 2.52226C15.9335 2.09965 16.3938 1.47045 16.3549 1.29692C16.316 1.12339 16.0024 1.12103 15.8279 1.60857C15.8279 1.60857 15.9291 0.635854 15.9291 0.372607C15.9291 0.10936 15.6144 -0.0240346 15.5255 0.337192C15.4365 0.698419 15.3865 1.36539 15.3865 1.36539C15.3865 1.36539 15.3053 0.586273 15.2708 0.248656C15.2364 -0.0936829 14.9217 -0.0559075 14.8817 0.200257C14.8417 0.456421 14.8572 1.31581 14.8572 1.31581C14.8572 1.31581 14.6738 0.74918 14.5915 0.550859C14.5092 0.350177 14.2624 0.333651 14.2813 0.609883C14.3002 0.888476 14.4403 1.4976 14.4403 1.4976C14.4403 1.4976 14.2869 1.23672 14.159 1.06083C14.0233 0.87313 13.8755 0.956944 13.9188 1.15645C13.9622 1.35713 14.2001 2.24485 14.3102 2.97438L15.1374 12.4867C15.3342 14.2669 17.1677 15.2679 18.6453 14.4002L26.3805 9.86248C26.3961 9.85776 26.4116 9.85186 26.4283 9.84478C27.0632 9.54375 27.8937 9.26988 28.0761 9.19905C28.2573 9.12822 28.2428 8.95115 28.0205 8.93345L28.0194 8.93108Z" fill="#249EFF"/>
<path d="M28.6641 21.3374C29.973 20.3748 30.299 18.4678 29.3924 17.0781C28.4857 15.6884 26.6896 15.3422 25.3807 16.3049C24.0718 17.2675 23.7457 19.1744 24.6524 20.5641C25.5591 21.9538 27.3552 22.3 28.6641 21.3374Z" fill="#F8C91F"/>
<path d="M25.8961 27.0049C25.8539 26.796 25.7683 26.5127 25.7683 26.5127C25.7683 26.5127 26.1029 27.0026 26.2853 27.1903C26.4665 27.378 26.6088 27.1737 26.5199 26.9837C26.4332 26.796 26.1541 26.299 26.1541 26.299C26.1541 26.299 26.7412 26.8467 26.9446 26.9754C27.1481 27.1041 27.3693 26.8822 27.1537 26.6413C26.9413 26.4041 26.451 25.8551 26.451 25.8551C26.451 25.8551 26.9446 26.2317 27.2515 26.3875C27.5584 26.5434 27.6607 26.214 27.4783 26.0499C27.296 25.8858 26.5566 25.3582 26.5566 25.3582C27.0035 25.5246 27.197 25.2779 27.1014 25.1398C27.0058 25.0005 26.2808 24.9698 26.024 24.6605C25.5392 23.6783 25.0534 22.6962 24.5686 21.7152C24.2951 21.1615 23.9259 20.6575 23.7114 20.0731C23.4023 19.2326 23.33 18.2517 23.7069 17.4218C24.0405 16.6875 24.6531 16.1599 25.2657 15.6983C25.9651 15.1718 26.6455 14.6146 27.3315 14.0692C27.6051 13.852 27.8786 13.6348 28.1521 13.4176C28.5034 13.2429 29.1806 13.5227 29.3207 13.4353C29.4607 13.3491 29.3762 13.0398 28.9037 13.0033C28.9037 13.0033 29.7798 12.8333 30.0089 12.7601C30.2379 12.6869 30.268 12.3422 29.9277 12.354C29.5886 12.367 28.9938 12.5015 28.9938 12.5015C28.9938 12.5015 29.6498 12.2064 29.9344 12.0789C30.2235 11.9503 30.1034 11.6516 29.8688 11.6835C29.6342 11.7153 28.8893 11.968 28.8893 11.968C28.8893 11.968 29.3329 11.6304 29.483 11.4958C29.6353 11.3588 29.5819 11.1121 29.3451 11.2066C29.1083 11.3022 28.6157 11.6091 28.6157 11.6091C28.6157 11.6091 28.8014 11.386 28.9193 11.2125C29.0449 11.0271 28.9315 10.9055 28.7692 11.0035C28.6068 11.1015 27.8986 11.5808 27.2937 11.8901L19.235 15.3359C17.7385 16.0217 17.3738 18.0994 18.539 19.3106L24.6342 25.6509C24.6431 25.6651 24.652 25.6792 24.6631 25.6934C25.1012 26.2341 25.5693 26.9742 25.6816 27.1324C25.7939 27.2918 25.9428 27.228 25.8984 27.0049H25.8961Z" fill="#F8C91F"/>
<path d="M19.0566 30.5917C20.0173 29.2615 19.7804 27.3564 18.5275 26.3364C17.2747 25.3165 15.4803 25.568 14.5197 26.8982C13.559 28.2283 13.7959 30.1335 15.0487 31.1534C16.3016 32.1733 18.096 31.9218 19.0566 30.5917Z" fill="#F8931F"/>
<path d="M9.16298 30.0333C9.33754 29.9282 9.56436 29.7582 9.56436 29.7582C9.56436 29.7582 9.22747 30.2399 9.11294 30.4783C8.99954 30.7156 9.22302 30.7983 9.36645 30.6531C9.50765 30.5102 9.86789 30.0829 9.86789 30.0829C9.86789 30.0829 9.55324 30.8348 9.49876 31.0768C9.44428 31.3188 9.70779 31.4758 9.859 31.1878C10.0069 30.9045 10.3515 30.2493 10.3515 30.2493C10.3515 30.2493 10.1625 30.8573 10.1136 31.2114C10.0658 31.5656 10.3894 31.5715 10.4816 31.3389C10.5739 31.1075 10.8252 30.2092 10.8252 30.2092C10.8085 30.7074 11.0865 30.8289 11.181 30.692C11.2766 30.5539 11.0898 29.8173 11.2888 29.4678C12.0204 28.6899 12.752 27.912 13.4836 27.134C13.8961 26.6949 14.2364 26.1755 14.6933 25.7871C15.3516 25.2276 16.2043 24.8652 17.0549 24.9986C17.8076 25.1166 18.4592 25.5746 19.0518 26.0539C19.7278 26.6005 20.4261 27.1187 21.1154 27.6475C21.39 27.8577 21.6647 28.0678 21.9382 28.2791C22.1972 28.5813 22.1494 29.3427 22.2673 29.4584C22.3863 29.5741 22.6353 29.397 22.5286 28.9118C22.5286 28.9118 22.9388 29.7417 23.0723 29.9507C23.2057 30.1596 23.5215 30.0864 23.4103 29.75C23.2991 29.4124 23.0022 28.8552 23.0022 28.8552C23.0022 28.8552 23.4603 29.4277 23.6571 29.6756C23.8572 29.9271 24.0874 29.7181 23.9895 29.4926C23.8917 29.2672 23.4459 28.5931 23.4459 28.5931C23.4459 28.5931 23.8772 28.939 24.0418 29.05C24.2086 29.1621 24.4132 29.0358 24.2586 28.8257C24.103 28.6155 23.6849 28.213 23.6849 28.213C23.6849 28.213 23.9384 28.3334 24.1285 28.3995C24.3309 28.4703 24.4054 28.3216 24.2708 28.187C24.1352 28.0525 23.4992 27.4835 23.0434 26.9676L17.5886 19.8918C16.5346 18.5909 14.5755 18.84 13.8405 20.3687L9.99353 28.3676C9.98353 28.3806 9.97352 28.3936 9.96462 28.409C9.61217 29.0086 9.09182 29.698 8.98286 29.8574C8.87501 30.0168 8.97507 30.1478 9.16075 30.0368L9.16298 30.0333Z" fill="#F8931F"/>
<path d="M7.56455 20.4588C6.77958 19.0045 5.03285 18.5016 3.66305 19.335C2.29325 20.1684 1.8196 22.0229 2.60457 23.4773C3.38953 24.9316 5.13626 25.4345 6.50606 24.6011C7.87586 23.7677 8.34951 21.9132 7.56455 20.4588Z" fill="#F94E54"/>
<path d="M1.13596 14.9231C1.29162 15.0565 1.52511 15.217 1.52511 15.217C1.52511 15.217 0.979188 15.0624 0.727909 15.0376C0.478854 15.0128 0.488861 15.2642 0.667869 15.3516C0.844654 15.4377 1.35277 15.6361 1.35277 15.6361C1.35277 15.6361 0.577809 15.6042 0.346543 15.6396C0.115278 15.675 0.0741393 15.9938 0.382123 16.0363C0.685659 16.0776 1.38613 16.1755 1.38613 16.1755C1.38613 16.1755 0.784614 16.2133 0.456617 16.2971C0.12862 16.381 0.244253 16.702 0.481078 16.7079C0.717903 16.7138 1.59738 16.6289 1.59738 16.6289C1.15486 16.7965 1.15153 17.1152 1.30719 17.1589C1.46284 17.2026 2.03878 16.7457 2.41904 16.813C3.37079 17.2462 4.32142 17.6807 5.27317 18.1139C5.80908 18.3583 6.39058 18.5011 6.89981 18.8092C7.63252 19.2519 8.26628 19.9578 8.46307 20.8467C8.63764 21.6329 8.47753 22.4451 8.27851 23.2077C8.05058 24.0765 7.85489 24.9571 7.64697 25.8319C7.5647 26.1801 7.48131 26.5284 7.39903 26.8778C7.23114 27.2449 6.54624 27.4798 6.48953 27.6392C6.43283 27.7986 6.67966 27.9803 7.06436 27.6947C7.06436 27.6947 6.49065 28.4065 6.35722 28.6143C6.2238 28.822 6.40392 29.1077 6.65854 28.8728C6.91204 28.6379 7.29007 28.1385 7.29007 28.1385C7.29007 28.1385 6.95874 28.802 6.81531 29.0876C6.66966 29.378 6.9365 29.528 7.09883 29.3485C7.26116 29.1691 7.68478 28.4797 7.68478 28.4797C7.68478 28.4797 7.54246 29.0333 7.50577 29.2364C7.46908 29.4418 7.65587 29.5976 7.78151 29.3674C7.90826 29.136 8.10617 28.5741 8.10617 28.5741C8.10617 28.5741 8.09505 28.8692 8.10617 29.0806C8.1184 29.306 8.2774 29.3249 8.34522 29.1419C8.41304 28.959 8.67544 28.1196 8.95896 27.4798L13.1329 19.4821C13.8811 17.9616 12.9383 16.1201 11.3294 15.9607L2.90714 15.1249C2.89269 15.1202 2.87712 15.1143 2.86044 15.1119C2.20556 14.9868 1.40948 14.7283 1.22936 14.6799C1.04924 14.6327 0.972517 14.7802 1.13818 14.9219L1.13596 14.9231Z" fill="#F94E54"/>
<path d="M7.83949 11.0279C9.30801 10.5246 10.1142 8.85265 9.64016 7.29349C9.16613 5.73433 7.59138 4.87838 6.12286 5.38167C4.65434 5.88497 3.84815 7.55692 4.32218 9.11608C4.79622 10.6752 6.37097 11.5312 7.83949 11.0279Z" fill="#3EB489"/>
<path d="M11.9448 2.16564C11.8759 2.36042 11.8059 2.63783 11.8059 2.63783C11.8059 2.63783 11.7747 2.05231 11.7202 1.79733C11.6658 1.54353 11.4489 1.63088 11.4267 1.83393C11.4045 2.03461 11.3867 2.59533 11.3867 2.59533C11.3867 2.59533 11.1788 1.82212 11.0776 1.60373C10.9764 1.38652 10.6851 1.44319 10.7418 1.75955C10.7974 2.0712 10.9253 2.79247 10.9253 2.79247C10.9253 2.79247 10.7096 2.2105 10.5361 1.91302C10.3638 1.61554 10.1169 1.82566 10.1848 2.06176C10.2526 2.29785 10.5939 3.13836 10.5939 3.13836C10.3126 2.75352 10.0324 2.84678 10.0425 3.01322C10.0525 3.17967 10.6273 3.60937 10.6829 4.00365C10.5928 5.07434 10.5028 6.14386 10.4127 7.21455C10.3616 7.81778 10.4127 8.43399 10.2993 9.03013C10.1359 9.88716 9.71001 10.7265 8.99287 11.1916C8.358 11.6036 7.5986 11.6921 6.87145 11.7275C6.042 11.7677 5.21256 11.842 4.38312 11.9034C4.0529 11.9282 3.72268 11.953 3.39246 11.9766C3.01999 11.9223 2.60638 11.3191 2.44961 11.3108C2.29283 11.3026 2.20945 11.6012 2.57636 11.8952C2.57636 11.8952 1.77916 11.5457 1.55568 11.4773C1.3333 11.4088 1.13762 11.6744 1.42114 11.8527C1.70355 12.0321 2.25503 12.2528 2.25503 12.2528C2.25503 12.2528 1.57458 12.1277 1.27994 12.0734C0.980847 12.0179 0.931925 12.3272 1.13762 12.4323C1.34442 12.5373 2.07602 12.7463 2.07602 12.7463C2.07602 12.7463 1.54789 12.7746 1.35888 12.8006C1.16764 12.8266 1.0887 13.0579 1.32886 13.1122C1.56902 13.1665 2.12161 13.1901 2.12161 13.1901C2.12161 13.1901 1.86032 13.2692 1.67798 13.3448C1.48452 13.4262 1.51565 13.588 1.69688 13.5986C1.87811 13.6092 2.69088 13.6128 3.33686 13.6978L11.6046 15.3799C13.1623 15.655 14.4865 14.1652 14.1363 12.5303L12.3051 3.96941C12.3051 3.95289 12.3051 3.93636 12.3029 3.91865C12.2128 3.23397 12.1972 2.37104 12.185 2.17863C12.1717 1.98621 12.0193 1.95551 11.9459 2.1621L11.9448 2.16564Z" fill="#3EB489"/>
</svg>
