<svg width="150" height="150" viewBox="0 0 150 150" fill="none" xmlns="http://www.w3.org/2000/svg">
<path d="M61.425 31.25L48.925 43.75H25V118.75H125V43.75H101.075L88.575 31.25H61.425ZM56.25 18.75H93.75L106.25 31.25H131.25C132.908 31.25 134.497 31.9085 135.669 33.0806C136.842 34.2527 137.5 35.8424 137.5 37.5V125C137.5 126.658 136.842 128.247 135.669 129.419C134.497 130.592 132.908 131.25 131.25 131.25H18.75C17.0924 131.25 15.5027 130.592 14.3306 129.419C13.1585 128.247 12.5 126.658 12.5 125V37.5C12.5 35.8424 13.1585 34.2527 14.3306 33.0806C15.5027 31.9085 17.0924 31.25 18.75 31.25H43.75L56.25 18.75ZM75 112.5C65.8832 112.5 57.1398 108.878 50.6932 102.432C44.2466 95.9852 40.625 87.2418 40.625 78.125C40.625 69.0082 44.2466 60.2648 50.6932 53.8182C57.1398 47.3716 65.8832 43.75 75 43.75C84.1168 43.75 92.8602 47.3716 99.3068 53.8182C105.753 60.2648 109.375 69.0082 109.375 78.125C109.375 87.2418 105.753 95.9852 99.3068 102.432C92.8602 108.878 84.1168 112.5 75 112.5ZM75 100C80.8016 100 86.3656 97.6953 90.468 93.593C94.5703 89.4906 96.875 83.9266 96.875 78.125C96.875 72.3234 94.5703 66.7594 90.468 62.657C86.3656 58.5547 80.8016 56.25 75 56.25C69.1984 56.25 63.6344 58.5547 59.532 62.657C55.4297 66.7594 53.125 72.3234 53.125 78.125C53.125 83.9266 55.4297 89.4906 59.532 93.593C63.6344 97.6953 69.1984 100 75 100Z" fill="white"/>
</svg>
