<svg width="24" height="24" viewBox="0 0 24 24" fill="none" xmlns="http://www.w3.org/2000/svg">
<rect x="0.5" y="0.5" width="23" height="23" rx="5.5" fill="#5856D6"/>
<rect x="0.5" y="0.5" width="23" height="23" rx="5.5" stroke="#4846A6"/>
<path d="M7.75 21V15.327H5.804C5.30267 15.327 4.87667 15.1497 4.526 14.795C4.17533 14.4403 4 14.0097 4 13.503C4 13.1357 4.098 12.7957 4.294 12.483C4.49 12.1703 4.75333 11.9403 5.084 11.793L11.5 8.93V7.685C10.9513 7.571 10.5 7.298 10.146 6.866C9.79267 6.43467 9.616 5.941 9.616 5.385C9.616 4.72233 9.84667 4.159 10.308 3.695C10.77 3.23167 11.331 3 11.991 3C12.651 3 13.2117 3.234 13.673 3.702C14.1343 4.17 14.3653 4.731 14.366 5.385H13.327C13.327 4.99233 13.2 4.66333 12.946 4.398C12.6913 4.13267 12.376 4 12 4C11.608 4 11.2793 4.13267 11.014 4.398C10.7487 4.66333 10.616 4.99233 10.616 5.385C10.616 5.77767 10.7487 6.10633 11.014 6.371C11.2793 6.63567 11.608 6.76833 12 6.769C12.142 6.769 12.2607 6.817 12.356 6.913C12.4513 7.009 12.4993 7.12767 12.5 7.269V8.931L18.896 11.792C19.226 11.9433 19.4927 12.1737 19.696 12.483C19.8987 12.7923 20 13.1303 20 13.497C20 14.0017 19.8227 14.433 19.468 14.791C19.114 15.1483 18.6837 15.327 18.177 15.327H16.25V21H7.75ZM5.804 14.327H7.75V13.384H16.25V14.327H18.177C18.409 14.327 18.6043 14.247 18.763 14.087C18.921 13.927 19 13.7287 19 13.492C19 13.332 18.96 13.181 18.88 13.039C18.8 12.897 18.68 12.7903 18.52 12.719L12 9.816L5.5 12.719C5.34 12.791 5.21667 12.8977 5.13 13.039C5.04333 13.1803 5 13.3313 5 13.492C5 13.728 5.07533 13.9263 5.226 14.087C5.37667 14.247 5.56933 14.327 5.804 14.327Z" fill="white"/>
</svg>
