<svg width="21" height="21" viewBox="0 0 21 21" fill="none" xmlns="http://www.w3.org/2000/svg">
<path d="M10.4997 20.9163C16.2497 20.9163 20.9163 16.2497 20.9163 10.4997C20.9163 5.55176 17.4684 1.41634 12.8434 0.353841L12.7601 0.312175L12.7497 0.333008C12.0205 0.176758 11.2705 0.0830078 10.4997 0.0830078C4.74967 0.0830078 0.0830078 4.74967 0.0830078 10.4997C0.0830078 16.2497 4.74967 20.9163 10.4997 20.9163ZM10.4997 18.833C10.1038 18.833 9.72884 18.7913 9.35384 18.7393L13.5101 11.5413L16.3434 16.4372C14.7853 17.9716 12.6865 18.8321 10.4997 18.833ZM18.833 10.4997C18.833 12.4268 18.1663 14.1976 17.0622 15.6143L12.8955 8.41634H18.5518C18.7288 9.08301 18.833 9.78092 18.833 10.4997ZM18.2184 7.37467H9.89551L12.7184 2.47884C15.2184 3.16634 17.2497 4.99967 18.2184 7.37467ZM10.4997 2.16634C10.8851 2.16634 11.2705 2.19759 11.6455 2.24967L8.69759 7.37467L7.49967 9.45801L4.66634 4.56217C6.21936 3.02646 8.31558 2.16551 10.4997 2.16634ZM2.16634 10.4997C2.16634 8.57259 2.83301 6.80176 3.93717 5.38509L6.89551 10.4997L8.09342 12.583H2.43717C2.27051 11.9163 2.16634 11.2184 2.16634 10.4997ZM8.69759 13.6247H11.0934L8.27051 18.5205C7.04167 18.1767 5.90749 17.557 4.95438 16.7086C4.00126 15.8602 3.25434 14.8054 2.77051 13.6247H8.69759Z" fill="white"/>
</svg>
